0
SECTION
2
HEADER
9
$INSUNITS
70
4
9
$ACADVER
1
AC1014
9
$HANDSEED
5
FFFF
0
ENDSEC
0
SECTION
2
TABLES
0
TABLE
2
VPORT
5
8
100
AcDbSymbolTable
0
ENDTAB
0
TABLE
2
LTYPE
5
5
100
AcDbSymbolTable
0
LTYPE
5
14
100
AcDbSymbolTableRecord
100
AcDbLinetypeTableRecord
2
BYBLOCK
70
0
0
LTYPE
5
15
100
AcDbSymbolTableRecord
100
AcDbLinetypeTableRecord
2
BYLAYER
70
0
0
ENDTAB
0
TABLE
2
LAYER
5
2
100
AcDbSymbolTable
70
2
0
LAYER
5
50
100
AcDbSymbolTableRecord
100
AcDbLayerTableRecord
2
0
70
0
6
CONTINUOUS
0
ENDTAB
0
TABLE
2
STYLE
5
3
100
AcDbSymbolTable
70
1
0
STYLE
5
11
100
AcDbSymbolTableRecord
100
AcDbTextStyleTableRecord
2
STANDARD
70
0
0
ENDTAB
0
TABLE
2
VIEW
5
6
100
AcDbSymbolTable
70
0
0
ENDTAB
0
TABLE
2
UCS
5
7
100
AcDbSymbolTable
70
0
0
ENDTAB
0
TABLE
2
APPID
5
9
100
AcDbSymbolTable
70
2
0
APPID
5
12
100
AcDbSymbolTableRecord
100
AcDbRegAppTableRecord
2
ACAD
70
0
0
ENDTAB
0
TABLE
2
DIMSTYLE
5
A
100
AcDbSymbolTable
70
1
0
ENDTAB
0
TABLE
2
BLOCK_RECORD
5
1
100
AcDbSymbolTable
70
1
0
BLOCK_RECORD
5
1F
100
AcDbSymbolTableRecord
100
AcDbBlockTableRecord
2
*MODEL_SPACE
0
BLOCK_RECORD
5
1B
100
AcDbSymbolTableRecord
100
AcDbBlockTableRecord
2
*PAPER_SPACE
0
ENDTAB
0
ENDSEC
0
SECTION
2
BLOCKS
0
BLOCK
5
20
100
AcDbEntity
100
AcDbBlockBegin
2
*MODEL_SPACE
0
ENDBLK
5
21
100
AcDbEntity
100
AcDbBlockEnd
0
BLOCK
5
1C
100
AcDbEntity
100
AcDbBlockBegin
2
*PAPER_SPACE
0
ENDBLK
5
1D
100
AcDbEntity
100
AcDbBlockEnd
0
ENDSEC
0
SECTION
2
ENTITIES
0
ARC
5
100
100
AcDbEntity
8
0
100
AcDbCircle
10
-45.688104303438372
20
-145
30
0
40
5.0000000000000089
210
0
220
0
230
1
100
AcDbArc
50
180
51
269.99999999999989
0
LINE
5
101
100
AcDbEntity
8
0
100
AcDbLine
10
-45.688104303438379
20
-150
30
0
11
10.260229729685681
21
-150.00000000000003
31
0
0
SPLINE
5
102
100
AcDbEntity
8
0
100
AcDbSpline
70
4
71
5
72
15
73
9
74
0
42
0.000000001
43
0.0000000001
44
0.0000000001
40
0
40
0
40
0
40
0
40
0
40
0
40
0.20000000000000001
40
0.40000000000000002
40
0.60000000000000009
40
0.64474440435537128
40
0.64474440435537128
40
0.64474440435537128
40
0.64474440435537128
40
0.64474440435537128
40
0.64474440435537128
41
1
41
1
41
1
41
1
41
1
41
1
41
1
41
1
41
1
10
10.260229729685683
20
-150.00000000000003
30
0
10
12.332762414315166
20
-150.00000000000003
30
0
10
16.511992126694601
20
-149.41628412765343
30
0
10
22.883237523212152
20
-146.79113801199915
30
0
10
29.871898939233084
20
-141.53918037777186
30
0
10
36.962336454642937
20
-134.54832425425036
30
0
10
41.887868944054347
20
-129.13569844041575
30
0
10
44.607235045427338
20
-126.00627513060921
30
0
10
45.104677954037214
20
-125.42926766761286
30
0
0
SPLINE
5
103
100
AcDbEntity
8
0
100
AcDbSpline
70
4
71
5
72
13
73
7
74
0
42
0.000000001
43
0.0000000001
44
0.0000000001
40
0.64474440435537173
40
0.64474440435537173
40
0.64474440435537173
40
0.64474440435537173
40
0.64474440435537173
40
0.64474440435537173
40
0.80000000000000004
40
1
40
1
40
1
40
1
40
1
40
1
41
1
41
1
41
1
41
1
41
1
41
1
41
1
10
45.104677954037236
20
-125.42926766761286
30
0
10
46.830721605485522
20
-123.42714832666925
30
0
10
50.788125858669531
20
-118.7113700150008
30
0
10
54.761522732650867
20
-113.72234931822265
30
0
10
58.747555502109336
20
-108.51743766386549
30
0
10
62.745489632757511
20
-103.10918495873685
30
0
10
65
20
-100
30
0
0
SPLINE
5
104
100
AcDbEntity
8
0
100
AcDbSpline
70
4
71
5
72
14
73
8
74
0
42
0.000000001
43
0.0000000001
44
0.0000000001
40
-1
40
-1
40
-1
40
-1
40
-1
40
-1
40
-0.80000000000000004
40
-0.60000000000000009
40
-0.43362886258194039
40
-0.43362886258194039
40
-0.43362886258194039
40
-0.43362886258194039
40
-0.43362886258194039
40
-0.43362886258194039
41
1
41
1
41
1
41
1
41
1
41
1
41
1
41
1
10
65
20
-100
30
0
10
62.69351413888073
20
-101.76964552587309
30
0
10
58.139689217481489
20
-105.36912578941717
30
0
10
51.859069505017352
20
-110.63587296564199
30
0
10
45.735595698854965
20
-116.01778431620201
30
0
10
39.531203543974641
20
-121.10771316233844
30
0
10
35.401161300200862
20
-124.12841257203524
30
0
10
33.493613627166283
20
-125.4292676676129
30
0
0
SPLINE
5
105
100
AcDbEntity
8
0
100
AcDbSpline
70
4
71
5
72
14
73
8
74
0
42
0.000000001
43
0.0000000001
44
0.0000000001
40
-0.43362886258194022
40
-0.43362886258194022
40
-0.43362886258194022
40
-0.43362886258194022
40
-0.43362886258194022
40
-0.43362886258194022
40
-0.40000000000000002
40
-0.20000000000000001
40
-0.069581243947990715
40
-0.069581243947990715
40
-0.069581243947990715
40
-0.069581243947990715
40
-0.069581243947990715
40
-0.069581243947990715
41
1
41
1
41
1
41
1
41
1
41
1
41
1
41
1
10
33.493613627166269
20
-125.42926766761292
30
0
10
33.108037982493094
20
-125.69221157679755
30
0
10
30.420235257258774
20
-127.49884087480567
30
0
10
26.128477359215118
20
-130.0870525608332
30
0
10
21.62097495079459
20
-132.22104772471835
30
0
10
16.810187655492449
20
-133.73511933887426
30
0
10
12.148058740195268
20
-134.50999819464178
30
0
10
10.260229729685687
20
-134.71942113535169
30
0
0
LINE
5
106
100
AcDbEntity
8
0
100
AcDbLine
10
10.260229729685687
20
-134.71942113535169
30
0
11
10.260229729685683
21
-1.7763568394002505e-14
31
0
0
LINE
5
107
100
AcDbEntity
8
0
100
AcDbLine
10
10.260229729685683
20
-1.7763568394002505e-14
30
0
11
-19.739770270314317
21
-8.8817841970012523e-15
31
0
0
LINE
5
108
100
AcDbEntity
8
0
100
AcDbLine
10
-19.739770270314317
20
-8.8817841970012523e-15
30
0
11
-19.739770270314317
21
-125.42926766761286
31
0
0
LINE
5
109
100
AcDbEntity
8
0
100
AcDbLine
10
-19.739770270314317
20
-125.42926766761286
30
0
11
-45.688104303438379
21
-125.42926766761289
31
0
0
ARC
5
110
100
AcDbEntity
8
0
100
AcDbCircle
10
-45.688104303438372
20
-130.42926766761289
30
0
40
5
210
0
220
0
230
1
100
AcDbArc
50
90.000000000000099
51
180
0
LINE
5
111
100
AcDbEntity
8
0
100
AcDbLine
10
-50.688104303438372
20
-130.42926766761286
30
0
11
-50.688104303438379
21
-145.00000000000003
31
0
0
CIRCLE
5
112
100
AcDbEntity
8
0
100
AcDbCircle
10
-5.0000000000000044
20
-35.000000000000014
30
0
40
1.0525000000000007
210
0
220
-0
230
1
0
ENDSEC
0
SECTION
2
OBJECTS
0
DICTIONARY
5
C
100
AcDbDictionary
3
ACAD_GROUP
350
D
3
ACAD_MLINESTYLE
350
17
0
DICTIONARY
5
D
100
AcDbDictionary
0
DICTIONARY
5
1A
330
C
100
AcDbDictionary
0
DICTIONARY
5
17
100
AcDbDictionary
0
ENDSEC
0
EOF
